<?xml version="1.0" encoding="utf-8"?>
<!-- Generator: Adobe Adobe Illustrator 29.1.0, SVG Export Plug-In . SVG Version: 6.00 Build 0)  -->
<svg version="1.1" id="Layer_1" xmlns="http://www.w3.org/2000/svg" xmlns:xlink="http://www.w3.org/1999/xlink" x="0px" y="0px"
	 width="192px" height="161.5px" viewBox="0 0 192 161.5" style="enable-background:new 0 0 192 161.5;" xml:space="preserve">
<style type="text/css">
	.st0{fill:#87FFC5;}
	.st1{fill:none;}
	.st2{stroke:#000000;stroke-miterlimit:10;}
</style>
<rect x="93.9" y="49.4" class="st0" width="14.5" height="12"/>
<rect x="90.5" y="44.9" class="st0" width="7" height="6"/>
<ellipse class="st0" cx="98.9" cy="52.6" rx="5.6" ry="5.1"/>
<rect x="93" y="46.9" class="st0" width="16.2" height="10.1"/>
<ellipse class="st0" cx="100.9" cy="34.7" rx="17.6" ry="15.4"/>
<g>
	<rect x="37.9" y="49.7" class="st1" width="120.5" height="79.8"/>
	<path d="M45.3,115.9V51.3h11.8c6.8,0,12.2,0.7,16.3,3.2c4.9,2.9,7.7,7.9,7.7,13.5c0,5.1-2.3,9-6.8,12.4C81.9,84,85.7,89.2,85.7,97
		c0,5.3-1.8,9.7-5.6,13.3c-4.3,4.2-9,5.6-15.6,5.6H45.3z M57.6,63v13.6h2.7c5.8,0,8.7-2.5,8.7-7c0-4.1-2.8-6.6-8.3-6.6H57.6z
		 M57.6,87.6v16.7h4.1c7.7,0,11.9-2.2,11.9-7.7c0-5.7-4.3-9-13-9H57.6z"/>
	<path d="M108.6,56.3c0,4.2-3.4,7.7-7.6,7.7c-4.4,0-7.6-3.9-7.6-8.3c0-4.1,3.5-7.3,7.6-7.3C105.2,48.4,108.6,52,108.6,56.3z
		 M95,68.1h12v47.8H95V68.1z"/>
	<path d="M119.2,50.5h12v17.6h7.1v10.3h-7.1v37.5h-12V78.4h-6.1V68.1h6.1V50.5z"/>
</g>
<ellipse class="st2" cx="94.9" cy="57.3" rx="2.1" ry="1.5"/>
<rect x="93.3" y="47.5" class="st0" width="15.5" height="10"/>
<g>
	<rect x="-0.5" y="105.7" class="st1" width="259.4" height="276.4"/>
	<path class="st0" d="M5.4,107h9.9v42.3h14.3v9.4H5.4V107z"/>
	<path class="st0" d="M71.9,151.3c-4.1,5.8-9.5,8.4-17.6,8.4c-12.2,0-20-8.9-20-20.2c0-10.4,7.6-20.1,19.9-20.1
		c12.1,0,20.3,8.6,20.3,20.7c0,0.9-0.1,1.3-0.1,2.2H43.6c0.9,5.7,5.3,8.9,10.7,8.9c4.1,0,6.8-1.1,9.5-3.7L71.9,151.3z M64.8,134.8
		c-1.3-4.5-5.4-7.2-10.5-7.2c-4.8,0-8.4,2.4-10.3,7.2H64.8z"/>
	<path class="st0" d="M110.4,154.6c-3.4,3.3-7,5-11.8,5c-9.7,0-18.2-8.4-18.2-20.1c0-11.9,8.1-20.2,18-20.2c4.6,0,8.6,1.7,12,5.2
		v-4.2h9.6v38.2h-9.6V154.6z M90,139.5c0,6.6,4.3,11.4,10.3,11.4c5.9,0,10.5-4.5,10.5-11.4c0-6.7-4.5-11.2-10.5-11.2
		C94,128.2,90,133.3,90,139.5z"/>
	<path class="st0" d="M135.7,125.3c1.8-4,4.9-5.8,8.1-5.8c2,0,3.2,0.6,4.2,1l-2.9,8.2c-0.7-0.4-1.8-0.8-2.8-0.8
		c-2.7,0-4.9,3.2-5.1,8.8c-0.1,2.1-0.1,4.5-0.1,6.6v15.5h-9.6v-38.2h8.3L135.7,125.3L135.7,125.3z"/>
	<path class="st0" d="M162.6,124.3c3.7-3.1,7.1-4.9,11.3-4.9c7.1,0,13.1,4.9,13.1,13.1v26.1h-9.6v-18.1c0-7.6-0.6-12.4-6.5-12.4
		c-2.7,0-5,1.3-6.5,3.7c-1.9,3.1-1.9,6.6-1.9,10.5v16.3H153v-38.2h9.6L162.6,124.3L162.6,124.3z"/>
</g>
<g>
	<g transform="translate(-367.390102,1527.795897) scale(0.100000,-0.100000)">
		<path d="M4674.4,15249.1c-5.4-3-9.3-8.1-10.5-13.8c-1.3-5.8-1.4-42-0.2-58.3c1-12.7,2.5-16.8,8.8-21.5c3.6-2.7,5-3.2,9.7-3.2
			c7,0,13.4,3.7,16.1,9.4c2.4,5,2.8,17.1,1.8,51.3c-0.9,24.3-1,26.2-3.1,29.5C4692.5,15249.8,4681.5,15253,4674.4,15249.1z"/>
		<path d="M4463.5,15190.5c-8.6-4.3-12.2-14.8-8.2-23.7c1.3-2.7,8.7-11.4,20.7-24.3c10.3-11,25.2-27.8,33.1-37.1
			s15.2-17.9,16.1-18.8c1.1-0.9,4-2.2,6.5-2.8c8.2-2.2,16.8,1.6,20.8,9.3c1.9,3.6,1.4,13.4-1.1,18.3c-2,4.3-14.7,19.5-34.6,41.9
			C4485.1,15188.9,4474.5,15196.2,4463.5,15190.5z"/>
		<path d="M4886,15182.2c-7.1-5.4-6.5-4.6-20.8-25.1c-6.6-9.4-18.5-25-26.6-34.6c-8-9.7-15.2-19-15.9-20.7c-2-4.8-1.8-12.7,0.7-17.6
			c2.7-5.9,7.6-8.7,14.5-8.6c10.1,0.2,13.5,3,34.7,29.4c18.9,23.5,35.5,46.8,38.6,54.5c2,4.6,2,13.4,0.1,17
			c-2.8,5.7-10.2,9.9-17.1,9.9C4892.8,15186.5,4889.4,15184.7,4886,15182.2z"/>
		<path d="M4657.1,15098.1c-2.4-0.8-9.8-2.4-16.5-3.5c-18.2-3.1-33.8-10.2-52-23.2c-19.3-13.9-58-58.5-69.7-80.4
			c-7.5-14.1-13.2-34.2-16.7-57.9c-2.7-19-2.3-45.7,0.9-60.2c5.6-25.3,15.2-47,31.4-71.2c14.6-22,29.1-37.2,41.7-44l5.6-3l-0.1-26.1
			c-0.1-40,1.9-49.5,14-67.7c6.9-10.4,8.5-12.1,15-16.5c9.1-6.1,20.9-11.8,31.2-15c22.5-7.1,54.5-7.4,74.6-0.6
			c22.9,7.7,47.5,25.2,54.2,38.6c2.2,4.4,2.4,5.9,2.4,18c0,7.8,0.8,18.2,1.9,25.4c1.9,13,2.5,39.2,1.3,48.9l-0.8,5.5l7.1,5.4
			c35.7,27,61.5,63.9,73.4,104.9c7.5,25.9,8.1,57,1.8,88.2c-3.6,17.7-11.6,36.3-22.6,53c-3.7,5.5-7.9,12.4-9.3,15.2
			c-3.1,6.2-18.5,22.1-28.8,29.8c-9.2,6.8-27.9,17.5-39.1,22.4c-21.2,9.2-48.4,14.5-77.1,15
			C4665.7,15099.4,4660.4,15099.2,4657.1,15098.1z M4708.6,15059.5c24.7-4.6,41.4-11.5,63.8-26.7c7.9-5.2,10.1-7.7,23.5-25.9
			c13.4-18.3,23.7-38.9,28.1-56.9c2.4-9.4,2.3-39.5,0-51.3c-4-19.9-11.3-37.2-23.6-56c-6.4-9.9-10.4-14.4-27.2-31.2
			c-10.9-10.8-21.8-21.3-24.2-23.2c-8.1-6.6-8.4-8.1-8.5-35c0-12.8-0.3-23.2-0.6-23.1c-7.8,4.2-18.9,6.5-31.3,6.6
			c-4.6,0-9.8,0.3-11.8,0.6c-3.5,0.6-3.5,0.6-2.7,4.3c1.6,7.5,2.8,34.7,3.4,79.1c0.5,31.1,1,45.8,1.8,46.8
			c0.6,0.8,9.6,7.9,20.1,15.8c21.6,16.4,34.3,27.5,44.8,38.9c8.4,9.3,11.9,14.8,14.5,23.5c2.3,7.3,2.4,11.9,0.5,15.7
			c-4,7.8-11.1,8.9-22.1,3.3c-5.8-2.9-10-6.5-23.6-19.8c-20-19.5-49.8-43-55.9-43.8c-3.5-0.5-3.9-0.2-10.8,7.1
			c-3.9,4.3-10.2,11.9-14,17c-8.5,11.5-22.9,29.4-28.2,35c-5.2,5.5-10.1,8-15.7,8c-16.2,0-23.5-18-12.8-32
			c34.2-44.9,48.7-61.5,60.4-69.6l4.7-3.3l-0.6-13.8c-0.3-7.5-0.9-35.8-1.2-62.5l-0.7-48.8l-12.3,0.6c-10.4,0.6-16.4,0.2-25.8-1.6
			c-1.3-0.2-1.4,3.6-0.2,17.5l0.7,9.9l-6.3,3.5c-3.4,2-11.2,7-17.3,11.4c-9.7,6.9-11.4,8.6-14.3,14c-3.2,6.1-10.6,17.3-21.5,32.9
			c-12.3,17.7-17.3,28.9-22,48.8c-4.9,20.5-4,49.8,2,73.8c3.4,13.2,5.8,18.9,12.9,30.1c3.3,5.2,8.7,13.8,12,19
			c8.8,13.9,14.5,22.3,16.8,24.4c1.1,1.1,5.5,4.1,9.9,6.7c4.3,2.7,12.6,8.5,18.5,13c5.8,4.5,13,9.2,16,10.5c4.7,2,19,6.9,24.8,8.4
			c1.1,0.3,11.6,0.3,23.4,0.2C4692.6,15061.7,4699.9,15061.1,4708.6,15059.5z M4627.4,14703c7.5-1.4,93.6-4.3,100-3.5
			c2.7,0.4,6.4,1.4,8.3,2c4.3,1.9,5,0.9,5-7.4v-6.2l-5.6-5.5c-11.1-10.5-25.1-17.1-44.3-21.2c-10.7-2.2-12.5-2.3-19.1-1.4
			c-12.5,2-31.4,11.2-45.6,22.6c-5.2,4-5.2,4-6.6,17c-0.6,5-0.5,5.7,0.9,5.2C4621.1,14704.2,4624.3,14703.5,4627.4,14703z"/>
		<path d="M4404.5,14945.6c-4.3-0.8-11.5-1.4-16-1.5c-14.5-0.2-19.5-2-23.9-8.6c-4.7-6.8-3.7-15.7,2.4-21.8c5.8-6,8-6.2,43.4-5
			c28.2,0.9,32,1.2,40.6,3.4c11.3,2.9,13.7,4.5,15.8,9.6c2.1,5.3,2,8.5-0.6,13.6c-4.6,8.9-10.7,10.8-35.8,11.2
			C4418.2,14946.8,4409.8,14946.5,4404.5,14945.6z"/>
		<path d="M4904.1,14939.5c-5.2-2.5-12.4-10.2-13.7-14.7c-1-3.4-0.9-4.7,0.5-8.4c2-5,6.7-9.7,11.5-11.1c1.8-0.6,15.3-1.8,30-2.6
			c40.6-2.4,50.1-2.7,52.9-2c3.1,0.8,9,5.9,10.9,9.5c2,3.8,1.8,6.5-1,12.1c-3.8,8.3-12.5,13.3-26.2,15.1c-5.2,0.7-57.1,4-60.9,3.9
			C4907.8,14941.2,4906,14940.5,4904.1,14939.5z"/>
		<path d="M4486.8,14801.9c-9.6-5.4-29.9-19.2-38.9-26.6c-16.1-13.1-19.9-24.5-10.7-33.6c3.4-3.4,4.1-3.7,9.1-3.7
			c6.2,0,15.4,2.8,22.5,7c2.7,1.6,12.9,8.4,22.9,15.2c21,14.7,23.5,17.4,24.1,26.9c0.3,5.1,0,6.5-2,9.4c-2.7,4.2-9.3,7.6-15.9,8.4
			C4493.6,14805.4,4492.4,14805.2,4486.8,14801.9z"/>
		<path d="M4857,14801.9c-6.6-3.4-12.2-10.8-12.2-16.2c0-3.9,4.5-11.8,9.3-16.7c6.2-6.3,41.6-34.4,49.2-39.1
			c10.1-6.2,16.4-6.6,25.2-2c3.9,2,7,8.5,7,14.8c0,8.3-3.1,12.1-21.2,25.6c-6.9,5.2-17.4,13.3-23.4,18.1c-10,8-25.9,17.2-29.6,17.2
			C4860.6,14803.5,4858.6,14802.8,4857,14801.9z"/>
	</g>
</g>
<ellipse cx="95.1" cy="57.4" rx="0.9" ry="0.7"/>
</svg>
