<?xml version="1.0" encoding="utf-8"?>
<!-- Generator: Adobe Adobe Illustrator 29.1.0, SVG Export Plug-In . SVG Version: 6.00 Build 0)  -->
<svg version="1.1" id="Layer_1" xmlns="http://www.w3.org/2000/svg" xmlns:xlink="http://www.w3.org/1999/xlink" x="0px" y="0px"
	 width="348px" height="248.26px" viewBox="0 0 348 248.26" style="enable-background:new 0 0 348 248.26;" xml:space="preserve">
<style type="text/css">
	.st0{fill:#87FFC5;}
	.st1{fill:none;}
	.st2{stroke:#000000;stroke-miterlimit:10;}
</style>
<rect x="173.68" y="68.86" class="st0" width="14.5" height="12"/>
<rect x="170.29" y="64.34" class="st0" width="7" height="6"/>
<ellipse class="st0" cx="178.67" cy="72.03" rx="5.56" ry="5.13"/>
<rect x="172.81" y="66.34" class="st0" width="16.25" height="10.06"/>
<ellipse class="st0" cx="180.72" cy="54.19" rx="17.61" ry="15.39"/>
<g id="Layer_2">
</g>
<g>
	<rect x="117.71" y="69.12" class="st1" width="120.45" height="79.79"/>
	<path d="M125.09,135.36V70.74h11.79c6.75,0,12.24,0.72,16.29,3.15c4.86,2.88,7.74,7.92,7.74,13.5c0,5.13-2.34,9-6.75,12.42
		c7.56,3.6,11.34,8.82,11.34,16.65c0,5.31-1.8,9.72-5.58,13.32c-4.32,4.23-9,5.58-15.57,5.58H125.09z M137.42,82.44v13.59h2.7
		c5.76,0,8.73-2.52,8.73-7.02c0-4.14-2.79-6.57-8.28-6.57H137.42z M137.42,107.01v16.65h4.14c7.74,0,11.88-2.16,11.88-7.65
		c0-5.67-4.32-9-12.96-9H137.42z"/>
	<path d="M188.36,75.78c0,4.23-3.42,7.65-7.65,7.65c-4.41,0-7.65-3.87-7.65-8.28c0-4.14,3.51-7.29,7.65-7.29
		C185.03,67.86,188.36,71.46,188.36,75.78z M174.77,87.57h11.97v47.79h-11.97V87.57z"/>
	<path d="M198.98,69.93h11.97v17.64h7.11v10.26h-7.11v37.53h-11.97V97.83h-6.12V87.57h6.12V69.93z"/>
</g>
<ellipse class="st2" cx="174.71" cy="76.71" rx="2.12" ry="1.5"/>
<rect x="173.11" y="66.9" class="st0" width="15.5" height="10"/>
<g>
	<rect x="79.31" y="125.13" class="st1" width="259.36" height="276.43"/>
	<path class="st0" d="M85.21,126.42h9.87v42.34h14.33v9.36H85.21V126.42z"/>
	<path class="st0" d="M151.67,170.7c-4.1,5.83-9.5,8.42-17.57,8.42c-12.17,0-20.02-8.93-20.02-20.16c0-10.44,7.56-20.09,19.87-20.09
		c12.1,0,20.31,8.64,20.31,20.74c0,0.86-0.07,1.3-0.07,2.16h-30.82c0.94,5.69,5.26,8.86,10.73,8.86c4.1,0,6.84-1.15,9.5-3.74
		L151.67,170.7z M144.61,154.21c-1.3-4.46-5.4-7.2-10.51-7.2c-4.75,0-8.42,2.38-10.3,7.2H144.61z"/>
	<path class="st0" d="M190.19,174.09c-3.38,3.31-6.98,5.04-11.81,5.04c-9.72,0-18.22-8.35-18.22-20.09c0-11.95,8.06-20.16,18-20.16
		c4.61,0,8.57,1.73,12.03,5.18v-4.18h9.58v38.24h-9.58V174.09z M169.81,158.97c0,6.55,4.32,11.38,10.3,11.38
		c5.9,0,10.51-4.46,10.51-11.45c0-6.7-4.46-11.23-10.51-11.23C173.77,147.66,169.81,152.7,169.81,158.97z"/>
	<path class="st0" d="M215.46,144.71c1.8-3.96,4.9-5.83,8.06-5.83c2.02,0,3.24,0.58,4.18,1.01l-2.95,8.21
		c-0.72-0.36-1.8-0.79-2.81-0.79c-2.74,0-4.9,3.17-5.11,8.79c-0.07,2.09-0.07,4.46-0.07,6.55v15.48h-9.58v-38.24h8.28V144.71z"/>
	<path class="st0" d="M242.38,143.77c3.67-3.1,7.06-4.9,11.3-4.9c7.13,0,13.11,4.9,13.11,13.1v26.14h-9.58v-18.07
		c0-7.56-0.65-12.38-6.48-12.38c-2.66,0-4.97,1.3-6.48,3.67c-1.94,3.1-1.87,6.55-1.87,10.51v16.27h-9.58v-38.24h9.58V143.77z"/>
</g>
<g>
	<g transform="translate(-367.390102,1527.795897) scale(0.100000,-0.100000)">
		<path d="M5472.46,15054.65c-5.35-3.03-9.34-8.11-10.51-13.77c-1.27-5.76-1.36-42.01-0.19-58.32c0.97-12.7,2.53-16.8,8.76-21.49
			c3.6-2.74,4.96-3.22,9.73-3.22c7,0,13.43,3.71,16.15,9.38c2.43,4.98,2.82,17.1,1.75,51.29c-0.88,24.33-0.97,26.18-3.11,29.5
			C5490.55,15055.34,5479.56,15058.56,5472.46,15054.65z"/>
		<path d="M5261.52,14996.13c-8.56-4.3-12.16-14.75-8.17-23.74c1.26-2.74,8.66-11.43,20.72-24.33
			c10.31-11.04,25.2-27.75,33.08-37.12s15.18-17.88,16.15-18.76c1.07-0.88,3.99-2.25,6.52-2.83c8.17-2.25,16.83,1.56,20.82,9.28
			c1.85,3.62,1.36,13.38-1.07,18.27c-2.04,4.3-14.69,19.54-34.64,41.91C5283.12,14994.47,5272.52,15001.8,5261.52,14996.13z"/>
		<path d="M5684.07,14987.83c-7.1-5.37-6.52-4.59-20.82-25.11c-6.62-9.38-18.49-25.01-26.56-34.58
			c-7.98-9.67-15.18-18.95-15.86-20.71c-2.04-4.79-1.75-12.7,0.68-17.58c2.72-5.86,7.59-8.7,14.5-8.6
			c10.12,0.2,13.52,3.03,34.73,29.41c18.88,23.54,35.51,46.8,38.63,54.51c1.95,4.59,2.04,13.38,0.1,17
			c-2.82,5.67-10.22,9.87-17.12,9.87C5690.78,14992.03,5687.38,14990.27,5684.07,14987.83z"/>
		<path d="M5455.14,14903.71c-2.43-0.78-9.83-2.44-16.54-3.52c-18.19-3.13-33.76-10.16-51.96-23.25
			c-19.26-13.87-57.99-58.52-69.66-80.4c-7.49-14.07-13.23-34.19-16.73-57.93c-2.72-18.95-2.33-45.72,0.88-60.18
			c5.64-25.3,15.18-46.99,31.43-71.22c14.59-21.98,29.09-37.22,41.74-43.96l5.64-3.03l-0.1-26.08c-0.1-40.05,1.85-49.53,14.01-67.7
			c6.91-10.36,8.46-12.11,14.98-16.51c9.15-6.06,20.92-11.82,31.23-15.04c22.47-7.13,54.48-7.42,74.62-0.59
			c22.86,7.72,47.48,25.21,54.19,38.59c2.24,4.4,2.43,5.86,2.43,17.98c0,7.82,0.78,18.17,1.85,25.4
			c1.85,12.99,2.53,39.17,1.27,48.94l-0.78,5.47l7.1,5.37c35.71,26.96,61.49,63.89,73.36,104.92c7.49,25.89,8.08,56.96,1.75,88.22
			c-3.6,17.68-11.58,36.34-22.57,53.05c-3.7,5.47-7.88,12.41-9.34,15.24c-3.11,6.25-18.49,22.08-28.8,29.8
			c-9.24,6.84-27.92,17.49-39.11,22.37c-21.21,9.18-48.35,14.46-77.15,15.04C5463.7,14904.98,5458.44,14904.79,5455.14,14903.71z
			 M5506.61,14865.12c24.71-4.59,41.35-11.53,63.82-26.67c7.88-5.18,10.12-7.72,23.55-25.89c13.43-18.27,23.74-38.88,28.12-56.86
			c2.43-9.38,2.33-39.47,0-51.29c-3.99-19.93-11.29-37.22-23.64-55.98c-6.42-9.87-10.41-14.36-27.24-31.17
			c-10.9-10.84-21.79-21.3-24.23-23.25c-8.08-6.64-8.37-8.11-8.46-34.97c0-12.8-0.29-23.15-0.58-23.06
			c-7.78,4.2-18.88,6.55-31.33,6.64c-4.57,0-9.83,0.29-11.77,0.59c-3.5,0.59-3.5,0.59-2.72,4.3c1.65,7.52,2.82,34.68,3.41,79.13
			c0.49,31.07,0.97,45.82,1.75,46.8c0.58,0.78,9.63,7.91,20.14,15.83c21.6,16.41,34.34,27.45,44.75,38.88
			c8.37,9.28,11.87,14.85,14.5,23.45c2.33,7.33,2.43,11.92,0.49,15.73c-3.99,7.82-11.09,8.89-22.09,3.32
			c-5.84-2.93-10.02-6.45-23.64-19.83c-19.95-19.54-49.81-42.99-55.85-43.77c-3.5-0.49-3.89-0.2-10.8,7.13
			c-3.89,4.3-10.22,11.92-14.01,17c-8.46,11.53-22.86,29.41-28.22,34.98c-5.16,5.47-10.12,8.01-15.66,8.01
			c-16.25,0-23.45-17.98-12.84-31.95c34.25-44.94,48.74-61.55,60.42-69.56l4.67-3.32l-0.58-13.77c-0.29-7.52-0.88-35.76-1.17-62.52
			l-0.68-48.75l-12.26,0.59c-10.41,0.59-16.35,0.2-25.78-1.56c-1.26-0.2-1.36,3.62-0.19,17.49l0.68,9.87l-6.32,3.52
			c-3.41,1.95-11.19,7.03-17.32,11.43c-9.73,6.94-11.38,8.6-14.3,13.97c-3.21,6.06-10.6,17.29-21.5,32.92
			c-12.26,17.68-17.32,28.92-21.99,48.85c-4.86,20.52-3.99,49.82,2.04,73.76c3.41,13.19,5.84,18.86,12.94,30.09
			c3.31,5.18,8.66,13.78,11.97,19.05c8.76,13.87,14.5,22.27,16.83,24.42c1.07,1.07,5.55,4.1,9.92,6.74
			c4.28,2.74,12.65,8.5,18.49,12.99c5.84,4.49,13.04,9.18,15.96,10.55c4.67,2.05,18.97,6.94,24.81,8.4
			c1.07,0.29,11.58,0.29,23.35,0.2C5490.65,14867.27,5497.95,14866.69,5506.61,14865.12z M5425.46,14508.54
			c7.49-1.37,93.6-4.3,100.02-3.52c2.72,0.39,6.42,1.37,8.27,2.05c4.28,1.86,4.96,0.88,4.96-7.42v-6.25l-5.64-5.47
			c-11.09-10.45-25.1-17.1-44.27-21.2c-10.7-2.25-12.55-2.34-19.07-1.37c-12.55,1.95-31.43,11.23-45.63,22.57
			c-5.16,4.01-5.16,4.01-6.62,17c-0.58,4.98-0.49,5.67,0.88,5.18C5419.14,14509.81,5422.35,14509.12,5425.46,14508.54z"/>
		<path d="M5202.56,14751.21c-4.28-0.78-11.48-1.37-16.05-1.47c-14.5-0.2-19.46-1.95-23.93-8.6c-4.67-6.84-3.7-15.73,2.43-21.79
			c5.84-5.96,7.98-6.16,43.39-4.98c28.22,0.88,32.01,1.17,40.57,3.42c11.29,2.93,13.72,4.49,15.76,9.57
			c2.14,5.28,1.95,8.5-0.58,13.58c-4.57,8.89-10.7,10.75-35.8,11.24C5216.18,14752.38,5207.82,14752.09,5202.56,14751.21z"/>
		<path d="M5702.17,14745.06c-5.25-2.54-12.36-10.16-13.72-14.65c-0.97-3.42-0.88-4.69,0.49-8.4c1.95-4.98,6.71-9.67,11.48-11.14
			c1.75-0.59,15.27-1.76,29.97-2.64c40.57-2.44,50.11-2.74,52.93-2.05c3.11,0.78,8.95,5.86,10.9,9.48
			c1.95,3.81,1.75,6.45-0.97,12.11c-3.79,8.3-12.45,13.29-26.17,15.14c-5.25,0.68-57.11,4.01-60.91,3.91
			C5705.86,14746.82,5704.01,14746.03,5702.17,14745.06z"/>
		<path d="M5284.78,14607.5c-9.63-5.37-29.87-19.25-38.92-26.57c-16.15-13.09-19.85-24.52-10.7-33.61c3.41-3.42,4.09-3.71,9.15-3.71
			c6.23,0,15.37,2.83,22.47,7.03c2.72,1.56,12.94,8.4,22.86,15.24c21.02,14.65,23.54,17.39,24.13,26.87c0.29,5.08,0,6.55-1.95,9.38
			c-2.72,4.2-9.34,7.62-15.86,8.4C5291.59,14611.02,5290.42,14610.73,5284.78,14607.5z"/>
		<path d="M5654.98,14607.5c-6.62-3.42-12.16-10.84-12.16-16.22c0-3.91,4.48-11.82,9.34-16.71c6.23-6.35,41.64-34.39,49.23-39.08
			c10.12-6.15,16.35-6.64,25.2-2.05c3.89,1.95,7.01,8.5,7.01,14.75c0,8.3-3.11,12.11-21.21,25.6c-6.91,5.18-17.42,13.29-23.35,18.07
			c-10.02,8.01-25.88,17.19-29.58,17.19C5658.58,14609.07,5656.63,14608.38,5654.98,14607.5z"/>
	</g>
</g>
<ellipse cx="174.9" cy="76.83" rx="0.9" ry="0.65"/>
</svg>
